<?xml version="1.0" standalone="no"?>
<!DOCTYPE svg PUBLIC "-//W3C//DTD SVG 20010904//EN"
 "http://www.w3.org/TR/2001/REC-SVG-20010904/DTD/svg10.dtd">
<svg version="1.0" xmlns="http://www.w3.org/2000/svg"
 width="2000.000000pt" height="2000.000000pt" viewBox="0 0 2000.000000 2000.000000"
 preserveAspectRatio="xMidYMid meet">
<metadata>
Created by potrace 1.16, written by Peter Selinger 2001-2019
</metadata>
<g transform="translate(0.000000,2000.000000) scale(0.100000,-0.100000)"
fill="#000000" stroke="none">
<path d="M4875 13329 c-93 -13 -216 -56 -302 -106 -104 -61 -243 -201 -300
-303 -147 -262 -147 -575 0 -840 38 -70 229 -263 2636 -2671 2408 -2407 2601
-2598 2671 -2636 264 -146 576 -146 840 0 70 38 263 229 2671 2636 2407 2408
2598 2601 2636 2671 147 266 147 577 0 840 -57 102 -205 250 -307 307 -262
146 -575 147 -840 0 -69 -38 -243 -209 -2327 -2291 l-2253 -2251 -2252 2251
c-2085 2082 -2259 2253 -2328 2291 -169 94 -357 129 -545 102z"/>
</g>
</svg>
